# xmcd CD database file
#
# Track frame offsets:
#	150
#	25228
#	47653
#	66913
#	92265
#	109890
#	139995
#
# Disc length: 2175 seconds
#
# Revision: 1
# Processed by: cddbd v1.5.1PL2 Copyright (c) Steve Scherf et al.
# Submitted via: CDex 1.60beta1-cs1
#
DISCID=5a087d07
DTITLE=Bobby Hutcherson - Montara
DYEAR=1975
DGENRE=Jazz
TTITLE0=Camel Rise
TTITLE1=Montara
TTITLE2=(Se Acabo) La Malanga
TTITLE3=Love Song
TTITLE4=Little Angel
TTITLE5=Yuyo
TTITLE6=Oye Como Va
EXTD=YEAR: 1975
EXTT0=
EXTT1=
EXTT2=
EXTT3=
EXTT4=
EXTT5=
EXTT6=
PLAYORDER=
